<?xml version="1.0" encoding="UTF-8"?>
<svg id="Camada_1" data-name="Camada 1" xmlns="http://www.w3.org/2000/svg" viewBox="0 0 927 206">
  <defs>
    <style>
      .cls-1 {
        fill: #f8f8f8;
      }
    </style>
  </defs>
  <g>
    <path class="cls-1" d="M234.82,155.01V50.47h21.42v12.3h3.39c1.7-4.38,4.42-7.6,8.16-9.65,3.74-2.05,8.38-3.07,13.89-3.07h12.51v19.72h-13.36c-7.07,0-12.86,1.94-17.39,5.83-4.53,3.89-6.79,9.86-6.79,17.92v61.49h-21.84Z"/>
    <path class="cls-1" d="M345.08,157.98c-10.6,0-19.86-2.23-27.78-6.68-7.92-4.45-14.1-10.74-18.55-18.87-4.45-8.13-6.68-17.56-6.68-28.31v-2.54c0-10.88,2.19-20.39,6.57-28.52,4.38-8.13,10.5-14.42,18.34-18.87s16.93-6.68,27.25-6.68,18.83,2.23,26.4,6.68c7.56,4.45,13.46,10.64,17.71,18.55,4.24,7.92,6.36,17.17,6.36,27.78v8.27h-80.36c.28,9.19,3.36,16.51,9.22,21.95,5.86,5.44,13.18,8.16,21.95,8.16,8.2,0,14.38-1.84,18.55-5.51,4.17-3.67,7.38-7.92,9.65-12.72l18.02,9.33c-1.98,3.96-4.84,8.13-8.59,12.51-3.75,4.38-8.66,8.06-14.74,11.03-6.08,2.97-13.86,4.45-23.32,4.45Zm-30.53-65.94h57.89c-.57-7.92-3.39-14.1-8.48-18.55s-11.73-6.68-19.93-6.68-14.88,2.23-20.04,6.68c-5.16,4.45-8.31,10.64-9.44,18.55Z"/>
    <path class="cls-1" d="M405.09,197.42V50.47h21.42v15.05h3.39c2.68-4.66,6.75-8.83,12.19-12.51,5.44-3.67,13.25-5.51,23.43-5.51,8.76,0,16.78,2.12,24.07,6.36,7.28,4.24,13.15,10.36,17.6,18.34,4.45,7.99,6.68,17.64,6.68,28.94v3.18c0,11.31-2.19,20.96-6.57,28.94-4.38,7.99-10.25,14.1-17.6,18.34-7.35,4.24-15.41,6.36-24.17,6.36-6.79,0-12.51-.85-17.18-2.54-4.66-1.7-8.41-3.85-11.24-6.47-2.83-2.61-5.09-5.33-6.79-8.16h-3.39v56.61h-21.84Zm54.07-58.52c9.61,0,17.46-3.04,23.54-9.12,6.08-6.08,9.12-14.77,9.12-26.08v-1.91c0-11.17-3.07-19.79-9.22-25.87-6.15-6.08-13.96-9.12-23.43-9.12s-17.07,3.04-23.22,9.12c-6.15,6.08-9.22,14.7-9.22,25.87v1.91c0,11.31,3.08,20,9.22,26.08,6.15,6.08,13.89,9.12,23.22,9.12Z"/>
    <path class="cls-1" d="M560.51,155.01c-6.36,0-11.42-1.91-15.16-5.73-3.75-3.82-5.62-8.91-5.62-15.27V68.92h-28.84v-18.45h28.84V15.91h21.84V50.47h31.17v18.45h-31.17v61.28c0,4.24,1.98,6.36,5.94,6.36h21.84v18.45h-28.84Z"/>
    <path class="cls-1" d="M646.6,157.98c-10.6,0-19.86-2.23-27.78-6.68-7.92-4.45-14.1-10.74-18.55-18.87-4.45-8.13-6.68-17.56-6.68-28.31v-2.54c0-10.88,2.19-20.39,6.57-28.52,4.38-8.13,10.5-14.42,18.34-18.87s16.93-6.68,27.25-6.68,18.83,2.23,26.4,6.68c7.56,4.45,13.46,10.64,17.71,18.55,4.24,7.92,6.36,17.17,6.36,27.78v8.27h-80.36c.28,9.19,3.36,16.51,9.22,21.95,5.86,5.44,13.18,8.16,21.95,8.16,8.2,0,14.38-1.84,18.55-5.51,4.17-3.67,7.38-7.92,9.65-12.72l18.02,9.33c-1.98,3.96-4.84,8.13-8.59,12.51-3.75,4.38-8.66,8.06-14.74,11.03-6.08,2.97-13.86,4.45-23.32,4.45Zm-30.53-65.94h57.89c-.57-7.92-3.39-14.1-8.48-18.55s-11.73-6.68-19.93-6.68-14.88,2.23-20.04,6.68c-5.16,4.45-8.31,10.64-9.44,18.55Z"/>
    <path class="cls-1" d="M755.17,157.98c-10.04,0-19.12-2.12-27.25-6.36-8.13-4.24-14.56-10.39-19.3-18.45-4.74-8.06-7.1-17.74-7.1-29.05v-2.76c0-11.31,2.37-20.96,7.1-28.94,4.73-7.98,11.17-14.13,19.3-18.45,8.13-4.31,17.21-6.47,27.25-6.47s18.59,1.84,25.66,5.51c7.07,3.68,12.75,8.55,17.07,14.63,4.31,6.08,7.1,12.79,8.38,20.14l-21.2,4.45c-.71-4.66-2.19-8.91-4.45-12.72-2.26-3.82-5.44-6.85-9.54-9.12-4.1-2.26-9.26-3.39-15.48-3.39s-11.56,1.38-16.43,4.13c-4.88,2.76-8.73,6.72-11.56,11.87-2.83,5.16-4.24,11.42-4.24,18.77v1.91c0,7.35,1.41,13.64,4.24,18.87,2.83,5.23,6.68,9.19,11.56,11.87,4.88,2.69,10.35,4.03,16.43,4.03,9.19,0,16.18-2.37,20.99-7.1,4.8-4.73,7.85-10.78,9.12-18.13l21.2,4.88c-1.7,7.21-4.7,13.86-9.01,19.93-4.31,6.08-10,10.92-17.07,14.52-7.07,3.6-15.62,5.41-25.66,5.41Z"/>
    <path class="cls-1" d="M816.23,155.01V6.58h21.84v58.73h3.39c1.41-2.68,3.43-5.3,6.04-7.85,2.61-2.54,6.08-4.63,10.39-6.26,4.31-1.62,9.79-2.44,16.43-2.44,7.92,0,14.95,1.77,21.1,5.3,6.15,3.54,10.99,8.52,14.52,14.95,3.53,6.43,5.3,14.17,5.3,23.22v62.76h-21.84v-61.07c0-9.04-2.26-15.72-6.79-20.04-4.53-4.31-10.75-6.47-18.66-6.47-9.05,0-16.29,2.97-21.73,8.91-5.44,5.94-8.16,14.56-8.16,25.87v52.8h-21.84Z"/>
  </g>
  <g>
    <polygon class="cls-1" points="180.91 83.93 179.66 82.8 161.8 66.63 153.92 59.5 141.97 48.68 128.19 36.21 123.58 32.03 104.55 14.8 104.47 14.73 85.39 33.43 76.73 41.92 66.98 51.47 50.99 67.15 48.57 69.52 30.16 87.57 25.26 92.37 11.75 105.62 25.26 117.85 30.87 122.92 49.28 104.87 50.99 103.18 67.68 86.82 76.73 77.96 86.09 68.78 104.5 50.73 104.55 50.77 122.89 67.38 128.19 72.18 142.73 85.33 153.92 95.47 161.83 102.63 179.66 118.76 180.95 119.93 200.03 101.23 180.91 83.93"/>
    <polygon class="cls-1" points="144.12 120.67 128.89 106.88 125.01 103.38 105.24 85.48 105.18 85.42 86.77 103.47 77.42 112.63 68.36 121.51 51.69 137.85 49.94 139.56 51.69 141.14 69.78 157.51 77.42 150.02 88.19 139.47 105.24 122.75 106.6 121.42 125.71 138.72 128.89 141.59 144.83 156.02 154.62 146.42 163.24 137.98 154.62 130.18 144.12 120.67"/>
    <polygon class="cls-1" points="104.83 152.91 94.11 163.42 86.42 170.96 94.11 177.92 105.53 188.26 119.85 174.22 123.94 170.21 119.85 166.5 104.83 152.91"/>
  </g>
</svg>