<?xml version="1.0" encoding="UTF-8"?>
<svg id="Camada_1" data-name="Camada 1" xmlns="http://www.w3.org/2000/svg" viewBox="0 0 303.12 303.12">
  <defs>
    <style>
      .cls-1 {
        fill: #0c0819;
      }
    </style>
  </defs>
  <polygon class="cls-1" points="226.58 134 225.33 132.86 207.48 116.69 199.6 109.56 187.64 98.74 173.86 86.27 169.25 82.1 150.22 64.87 150.14 64.8 131.06 83.5 122.4 91.99 112.66 101.54 96.67 117.21 94.25 119.59 75.84 137.63 70.93 142.44 57.42 155.68 70.93 167.91 76.54 172.98 94.95 154.94 96.67 153.25 113.36 136.89 122.4 128.03 131.77 118.84 150.18 100.79 150.22 100.84 168.57 117.44 173.86 122.24 188.4 135.39 199.6 145.53 207.5 152.7 225.33 168.83 226.62 169.99 245.7 151.3 226.58 134"/>
  <polygon class="cls-1" points="189.79 170.74 174.56 156.95 170.69 153.44 150.91 135.55 150.85 135.48 132.44 153.53 123.09 162.69 114.03 171.58 97.36 187.92 95.62 189.63 97.36 191.21 115.45 207.58 123.09 200.09 133.86 189.54 150.91 172.82 152.28 171.49 171.38 188.79 174.56 191.66 190.5 206.09 200.29 196.49 208.91 188.04 200.29 180.25 189.79 170.74"/>
  <polygon class="cls-1" points="150.5 202.97 139.79 213.48 132.09 221.02 139.79 227.98 151.21 238.32 165.52 224.29 169.62 220.28 165.52 216.56 150.5 202.97"/>
</svg>